<mxfile host="app.diagrams.net" modified="2022-01-15T10:19:01.986Z" agent="5.0 (Windows)" etag="tda4d9pkB0R0FxIAp04j" version="15.8.2" type="github">
  <diagram id="QmYOwocnGmAPkuGU-ptp" name="Page-1">
    <mxGraphModel dx="1907" dy="536" grid="1" gridSize="10" guides="1" tooltips="1" connect="1" arrows="1" fold="1" page="1" pageScale="1" pageWidth="850" pageHeight="1100" math="0" shadow="0">
      <root>
        <mxCell id="0" />
        <mxCell id="1" parent="0" />
        <mxCell id="ryCOZ5H8IaBR-WfB70Ji-6" value="" style="rounded=1;whiteSpace=wrap;html=1;align=center;" vertex="1" parent="1">
          <mxGeometry x="20" y="370" width="230" height="520" as="geometry" />
        </mxCell>
        <mxCell id="ryCOZ5H8IaBR-WfB70Ji-7" value="&lt;div align=&quot;justify&quot;&gt;&lt;font face=&quot;Times New Roman&quot;&gt;&lt;br&gt;&lt;/font&gt;&lt;/div&gt;&lt;div align=&quot;justify&quot;&gt;&lt;div&gt;&lt;b&gt;&lt;font style=&quot;font-size: 12px&quot; face=&quot;Times New Roman&quot;&gt;Knowledge Requirements&lt;/font&gt;&lt;/b&gt;&lt;/div&gt;&lt;div&gt;&lt;ul&gt;&lt;li&gt;&lt;div&gt;&lt;font face=&quot;Times New Roman&quot;&gt;&lt;span&gt;Larong Pinoy/&lt;br&gt;&lt;/span&gt;&lt;/font&gt;&lt;/div&gt;&lt;font face=&quot;Times New Roman&quot;&gt;Traditional Filipino Games&lt;/font&gt;&lt;/li&gt;&lt;li&gt;&lt;font face=&quot;Times New Roman&quot;&gt;3D modelling&lt;/font&gt;&lt;/li&gt;&lt;li&gt;&lt;font face=&quot;Times New Roman&quot;&gt;GDScript language&lt;br&gt;&lt;/font&gt;&lt;/li&gt;&lt;li&gt;&lt;div&gt;&lt;font face=&quot;Times New Roman&quot;&gt;Animation/Rigging&lt;/font&gt;&lt;/div&gt;&lt;/li&gt;&lt;li&gt;&lt;font face=&quot;Times New Roman&quot;&gt;Filipino mythological creatures&lt;/font&gt;&lt;/li&gt;&lt;/ul&gt;&lt;div&gt;&lt;b&gt;&lt;font face=&quot;Times New Roman&quot;&gt;Preliminary Requirements&lt;/font&gt;&lt;/b&gt;&lt;/div&gt;&lt;div&gt;&lt;ul&gt;&lt;li&gt;&lt;font face=&quot;Times New Roman&quot;&gt;Related literature and studies&lt;br&gt;&lt;/font&gt;&lt;/li&gt;&lt;li&gt;&lt;font face=&quot;Times New Roman&quot;&gt;Problem Statement&lt;br&gt;&lt;/font&gt;&lt;/li&gt;&lt;li&gt;&lt;font face=&quot;Times New Roman&quot;&gt;Planning and preparation&lt;/font&gt;&lt;/li&gt;&lt;/ul&gt;&lt;div&gt;&lt;b&gt;&lt;font face=&quot;Times New Roman&quot;&gt;Software Requirements&lt;/font&gt;&lt;/b&gt;&lt;/div&gt;&lt;div&gt;&lt;ul&gt;&lt;li&gt;&lt;font face=&quot;Times New Roman&quot;&gt;Godot Game Engine&lt;/font&gt;&lt;/li&gt;&lt;li&gt;&lt;font face=&quot;Times New Roman&quot;&gt;Blender&lt;/font&gt;&lt;/li&gt;&lt;li&gt;&lt;font face=&quot;Times New Roman&quot;&gt;Operating System (Windows 10)&lt;/font&gt;&lt;/li&gt;&lt;li&gt;&lt;font face=&quot;Times New Roman&quot;&gt;Sketchbook&lt;/font&gt;&lt;/li&gt;&lt;li&gt;&lt;font face=&quot;Times New Roman&quot;&gt;Audacity&lt;/font&gt;&lt;/li&gt;&lt;li&gt;&lt;font face=&quot;Times New Roman&quot;&gt;Github&lt;/font&gt;&lt;/li&gt;&lt;/ul&gt;&lt;div&gt;&lt;b&gt;&lt;font face=&quot;Times New Roman&quot;&gt;Hardware Requirements&lt;/font&gt;&lt;/b&gt;&lt;/div&gt;&lt;div&gt;&lt;ul&gt;&lt;li&gt;&lt;font face=&quot;Times New Roman&quot;&gt;Desktop/PC or Laptop&lt;/font&gt;&lt;/li&gt;&lt;li&gt;&lt;font face=&quot;Times New Roman&quot;&gt;Graphic Tablet&lt;/font&gt;&lt;/li&gt;&lt;li&gt;&lt;font face=&quot;Times New Roman&quot;&gt;Condense Microphone&lt;/font&gt;&lt;/li&gt;&lt;li&gt;&lt;font face=&quot;Times New Roman&quot;&gt;Android Phones&lt;br&gt;&lt;/font&gt;&lt;/li&gt;&lt;/ul&gt;&lt;/div&gt;&lt;/div&gt;&lt;/div&gt;&lt;/div&gt;&lt;/div&gt;" style="text;html=1;strokeColor=none;fillColor=none;spacing=5;spacingTop=-20;whiteSpace=wrap;overflow=hidden;rounded=0;align=right;" vertex="1" parent="1">
          <mxGeometry x="-30" y="440" width="270" height="490" as="geometry" />
        </mxCell>
        <mxCell id="ryCOZ5H8IaBR-WfB70Ji-8" value="&lt;font style=&quot;font-size: 16px&quot;&gt;&lt;b&gt;Input&lt;/b&gt;&lt;/font&gt;" style="text;html=1;strokeColor=none;fillColor=none;align=center;verticalAlign=middle;whiteSpace=wrap;rounded=0;fontFamily=Times New Roman;fontSize=12;" vertex="1" parent="1">
          <mxGeometry x="100" y="390" width="60" height="30" as="geometry" />
        </mxCell>
        <mxCell id="ryCOZ5H8IaBR-WfB70Ji-9" value="" style="rounded=1;whiteSpace=wrap;html=1;align=center;" vertex="1" parent="1">
          <mxGeometry x="350" y="370" width="230" height="520" as="geometry" />
        </mxCell>
        <mxCell id="ryCOZ5H8IaBR-WfB70Ji-10" value="&lt;font style=&quot;font-size: 16px&quot;&gt;&lt;b&gt;Process&lt;/b&gt;&lt;/font&gt;" style="text;html=1;strokeColor=none;fillColor=none;align=center;verticalAlign=middle;whiteSpace=wrap;rounded=0;fontFamily=Times New Roman;fontSize=12;" vertex="1" parent="1">
          <mxGeometry x="435" y="390" width="60" height="30" as="geometry" />
        </mxCell>
        <mxCell id="ryCOZ5H8IaBR-WfB70Ji-11" value="&lt;div align=&quot;justify&quot;&gt;&lt;font face=&quot;Times New Roman&quot;&gt;&lt;br&gt;&lt;/font&gt;&lt;/div&gt;&lt;div align=&quot;justify&quot;&gt;&lt;div&gt;&lt;font style=&quot;font-size: 12px&quot; face=&quot;Times New Roman&quot;&gt;&lt;b&gt;Data Assessment&lt;/b&gt;&lt;br&gt;&lt;/font&gt;&lt;/div&gt;&lt;div&gt;&lt;ul&gt;&lt;li&gt;&lt;font face=&quot;Times New Roman&quot;&gt;Questionnaires and Surveys&lt;/font&gt;&lt;/li&gt;&lt;li&gt;&lt;font face=&quot;Times New Roman&quot;&gt;Team sharing and brainstorming&lt;/font&gt;&lt;/li&gt;&lt;li&gt;&lt;font face=&quot;Times New Roman&quot;&gt;Document Analysis&lt;br&gt;&lt;/font&gt;&lt;/li&gt;&lt;/ul&gt;&lt;font face=&quot;Times New Roman&quot;&gt;&lt;b&gt;Systems Design Tools&lt;/b&gt;&lt;br&gt;&lt;/font&gt;&lt;div&gt;&lt;ul&gt;&lt;li&gt;&lt;font face=&quot;Times New Roman&quot;&gt;Data Flow Diagram (Level 0)&lt;br&gt;&lt;/font&gt;&lt;/li&gt;&lt;li&gt;&lt;font face=&quot;Times New Roman&quot;&gt;Flowchart of the Game&lt;br&gt;&lt;/font&gt;&lt;/li&gt;&lt;li&gt;&lt;font face=&quot;Times New Roman&quot;&gt;Storyboard Application&lt;br&gt;&lt;/font&gt;&lt;/li&gt;&lt;/ul&gt;&lt;div&gt;&lt;b&gt;&lt;font face=&quot;Times New Roman&quot;&gt;Software Development&lt;/font&gt;&lt;/b&gt;&lt;/div&gt;&lt;div&gt;&lt;ul&gt;&lt;li&gt;&lt;font face=&quot;Times New Roman&quot;&gt;Agile Method&lt;/font&gt;&lt;/li&gt;&lt;/ul&gt;&lt;/div&gt;&lt;div&gt;&lt;font face=&quot;Times New Roman&quot;&gt;&lt;span style=&quot;white-space: pre&quot;&gt;	&lt;/span&gt;&lt;span style=&quot;white-space: pre&quot;&gt;	&lt;/span&gt;a. Requirements/Planning&lt;br&gt;&lt;/font&gt;&lt;/div&gt;&lt;div&gt;&lt;font face=&quot;Times New Roman&quot;&gt;&lt;span style=&quot;white-space: pre&quot;&gt;	&lt;/span&gt;&lt;span style=&quot;white-space: pre&quot;&gt;	&lt;/span&gt;b. Design&lt;br&gt;&lt;span style=&quot;white-space: pre&quot;&gt;	&lt;/span&gt;&lt;span style=&quot;white-space: pre&quot;&gt;	&lt;/span&gt;c. Development&lt;br&gt;&lt;span style=&quot;white-space: pre&quot;&gt;	&lt;/span&gt;&lt;span style=&quot;white-space: pre&quot;&gt;	&lt;/span&gt;d. Testing&lt;/font&gt;&lt;/div&gt;&lt;div&gt;&lt;font face=&quot;Times New Roman&quot;&gt;&lt;br&gt;&lt;/font&gt;&lt;/div&gt;&lt;div&gt;&lt;font face=&quot;Times New Roman&quot;&gt;&lt;br&gt;&lt;span style=&quot;white-space: pre&quot;&gt;	&lt;/span&gt;&lt;span style=&quot;white-space: pre&quot;&gt;	&lt;/span&gt;e. Deployment&lt;br&gt;&lt;span style=&quot;white-space: pre&quot;&gt;	&lt;/span&gt;&lt;span style=&quot;white-space: pre&quot;&gt;	&lt;/span&gt;f. Review&lt;br&gt;&lt;/font&gt;&lt;/div&gt;&lt;div&gt;&lt;font face=&quot;Times New Roman&quot;&gt;&lt;br&gt;&lt;/font&gt;&lt;div&gt;&lt;b&gt;&lt;font face=&quot;Times New Roman&quot;&gt;Research Design&lt;/font&gt;&lt;/b&gt;&lt;/div&gt;&lt;div&gt;&lt;ul&gt;&lt;li&gt;&lt;font face=&quot;Times New Roman&quot;&gt;Applied Research&lt;br&gt;&lt;/font&gt;&lt;/li&gt;&lt;/ul&gt;&lt;/div&gt;&lt;div&gt;&lt;font face=&quot;Times New Roman&quot;&gt;&lt;b&gt;Sampling Design&lt;/b&gt;&lt;br&gt;&lt;/font&gt;&lt;/div&gt;&lt;div&gt;&lt;ul&gt;&lt;li&gt;&lt;font face=&quot;Times New Roman&quot;&gt;Purposive Sampling&lt;br&gt;&lt;/font&gt;&lt;/li&gt;&lt;/ul&gt;&lt;/div&gt;&lt;/div&gt;&lt;/div&gt;&lt;/div&gt;&lt;/div&gt;" style="text;html=1;strokeColor=none;fillColor=none;spacing=5;spacingTop=-20;whiteSpace=wrap;overflow=hidden;rounded=0;align=right;" vertex="1" parent="1">
          <mxGeometry x="290" y="430" width="270" height="490" as="geometry" />
        </mxCell>
        <mxCell id="ryCOZ5H8IaBR-WfB70Ji-12" value="&lt;ul&gt;&lt;li&gt;Alpha Testing&lt;br&gt;&lt;/li&gt;&lt;/ul&gt;" style="text;html=1;strokeColor=none;fillColor=none;align=center;verticalAlign=middle;whiteSpace=wrap;rounded=0;fontFamily=Times New Roman;fontSize=12;" vertex="1" parent="1">
          <mxGeometry x="400" y="710" width="120" height="30" as="geometry" />
        </mxCell>
        <mxCell id="ryCOZ5H8IaBR-WfB70Ji-13" value="" style="rounded=1;whiteSpace=wrap;html=1;align=center;" vertex="1" parent="1">
          <mxGeometry x="670" y="440" width="230" height="450" as="geometry" />
        </mxCell>
        <mxCell id="ryCOZ5H8IaBR-WfB70Ji-15" value="&lt;b&gt;&lt;font style=&quot;font-size: 12px&quot; face=&quot;Times New Roman&quot;&gt;KlasikoPinas: Filipino Traditions and Mythical Creatures Digital Game&lt;/font&gt;&lt;/b&gt;" style="text;html=1;strokeColor=none;fillColor=none;spacing=5;spacingTop=-20;whiteSpace=wrap;overflow=hidden;rounded=0;fontFamily=Times New Roman;fontSize=16;align=left;" vertex="1" parent="1">
          <mxGeometry x="680" y="545" width="210" height="280" as="geometry" />
        </mxCell>
        <mxCell id="ryCOZ5H8IaBR-WfB70Ji-16" value="&lt;b&gt;&lt;font style=&quot;font-size: 16px&quot;&gt;Output&lt;/font&gt;&lt;/b&gt;" style="text;html=1;strokeColor=none;fillColor=none;align=center;verticalAlign=middle;whiteSpace=wrap;rounded=0;fontFamily=Times New Roman;fontSize=12;" vertex="1" parent="1">
          <mxGeometry x="755" y="470" width="60" height="30" as="geometry" />
        </mxCell>
        <mxCell id="ryCOZ5H8IaBR-WfB70Ji-17" value="&amp;nbsp; &lt;b&gt;Feedback/Review/Evaluation&lt;/b&gt;" style="rounded=1;whiteSpace=wrap;html=1;fontFamily=Times New Roman;fontSize=12;align=left;" vertex="1" parent="1">
          <mxGeometry x="350" y="940" width="170" height="60" as="geometry" />
        </mxCell>
        <mxCell id="ryCOZ5H8IaBR-WfB70Ji-18" value="" style="endArrow=classic;html=1;rounded=0;fontFamily=Times New Roman;fontSize=12;exitX=0.5;exitY=1;exitDx=0;exitDy=0;" edge="1" parent="1" source="ryCOZ5H8IaBR-WfB70Ji-13">
          <mxGeometry width="50" height="50" relative="1" as="geometry">
            <mxPoint x="400" y="880" as="sourcePoint" />
            <mxPoint x="530" y="980" as="targetPoint" />
            <Array as="points">
              <mxPoint x="785" y="980" />
            </Array>
          </mxGeometry>
        </mxCell>
      </root>
    </mxGraphModel>
  </diagram>
</mxfile>
